<?xml version="1.0" encoding="UTF-8" standalone="no"?>
<!DOCTYPE svg PUBLIC "-//W3C//DTD SVG 1.1//EN"
 "http://www.w3.org/Graphics/SVG/1.1/DTD/svg11.dtd">
<!-- Generated by graphviz version 2.30.1 (20180420.1509)
 -->
<!-- Title: %3 Pages: 1 -->
<svg width="88pt" height="594pt"
 viewBox="0.00 0.00 88.00 594.00" xmlns="http://www.w3.org/2000/svg" xmlns:xlink="http://www.w3.org/1999/xlink">
<g id="graph0" class="graph" transform="scale(1 1) rotate(0) translate(4 590)">
<title>%3</title>
<polygon fill="white" stroke="white" points="-4,5 -4,-590 85,-590 85,5 -4,5"/>
<!-- 8167849839168307638 -->
<g id="node1" class="node"><title>8167849839168307638</title>
<polygon fill="none" stroke="black" points="67,-36 13,-36 13,-0 67,-0 67,-36"/>
<text text-anchor="middle" x="40" y="-14.3" font-family="Helvetica,sans-Serif" font-size="14.00">0</text>
</g>
<!-- &#45;3519570614932447486 -->
<g id="node2" class="node"><title>&#45;3519570614932447486</title>
<ellipse fill="none" stroke="black" cx="40" cy="-103" rx="30.5947" ry="30.5947"/>
<text text-anchor="middle" x="40" y="-99.3" font-family="Helvetica,sans-Serif" font-size="14.00">head</text>
</g>
<!-- 8167849839168307638&#45;&gt;&#45;3519570614932447486 -->
<g id="edge2" class="edge"><title>8167849839168307638&#45;&gt;&#45;3519570614932447486</title>
<path fill="none" stroke="black" d="M40,-36.1977C40,-43.7875 40,-53.0518 40,-62.2053"/>
<polygon fill="black" stroke="black" points="36.5001,-62.3976 40,-72.3976 43.5001,-62.3976 36.5001,-62.3976"/>
</g>
<!-- &#45;2771641245079489217 -->
<g id="node3" class="node"><title>&#45;2771641245079489217</title>
<polygon fill="none" stroke="black" points="67,-206 13,-206 13,-170 67,-170 67,-206"/>
<text text-anchor="middle" x="40" y="-184.3" font-family="Helvetica,sans-Serif" font-size="14.00">0</text>
</g>
<!-- &#45;3519570614932447486&#45;&gt;&#45;2771641245079489217 -->
<g id="edge1" class="edge"><title>&#45;3519570614932447486&#45;&gt;&#45;2771641245079489217</title>
<path fill="none" stroke="black" d="M40,-133.965C40,-142.359 40,-151.438 40,-159.671"/>
<polygon fill="black" stroke="black" points="36.5001,-159.878 40,-169.878 43.5001,-159.878 36.5001,-159.878"/>
</g>
<!-- &#45;1986733698185390446 -->
<g id="node4" class="node"><title>&#45;1986733698185390446</title>
<ellipse fill="none" stroke="black" cx="40" cy="-283" rx="40.0939" ry="40.0939"/>
<text text-anchor="middle" x="40" y="-279.3" font-family="Helvetica,sans-Serif" font-size="14.00">getitem</text>
</g>
<!-- &#45;2771641245079489217&#45;&gt;&#45;1986733698185390446 -->
<g id="edge4" class="edge"><title>&#45;2771641245079489217&#45;&gt;&#45;1986733698185390446</title>
<path fill="none" stroke="black" d="M40,-206.058C40,-213.605 40,-222.911 40,-232.39"/>
<polygon fill="black" stroke="black" points="36.5001,-232.669 40,-242.669 43.5001,-232.669 36.5001,-232.669"/>
</g>
<!-- &#45;4943849919288569590 -->
<g id="node5" class="node"><title>&#45;4943849919288569590</title>
<polygon fill="none" stroke="black" points="67,-396 13,-396 13,-360 67,-360 67,-396"/>
<text text-anchor="middle" x="40" y="-374.3" font-family="Helvetica,sans-Serif" font-size="14.00">0</text>
</g>
<!-- &#45;1986733698185390446&#45;&gt;&#45;4943849919288569590 -->
<g id="edge3" class="edge"><title>&#45;1986733698185390446&#45;&gt;&#45;4943849919288569590</title>
<path fill="none" stroke="black" d="M40,-323.44C40,-332.252 40,-341.411 40,-349.61"/>
<polygon fill="black" stroke="black" points="36.5001,-349.725 40,-359.725 43.5001,-349.725 36.5001,-349.725"/>
</g>
<!-- 7703171092284058863 -->
<g id="node6" class="node"><title>7703171092284058863</title>
<ellipse fill="none" stroke="black" cx="40" cy="-473" rx="40.8928" ry="40.8928"/>
<text text-anchor="middle" x="40" y="-469.3" font-family="Helvetica,sans-Serif" font-size="14.00">rename</text>
</g>
<!-- &#45;4943849919288569590&#45;&gt;7703171092284058863 -->
<g id="edge6" class="edge"><title>&#45;4943849919288569590&#45;&gt;7703171092284058863</title>
<path fill="none" stroke="black" d="M40,-396.058C40,-403.451 40,-412.532 40,-421.81"/>
<polygon fill="black" stroke="black" points="36.5001,-421.885 40,-431.885 43.5001,-421.885 36.5001,-421.885"/>
</g>
<!-- 5877015526136174526 -->
<g id="node7" class="node"><title>5877015526136174526</title>
<polygon fill="none" stroke="black" points="67,-586 13,-586 13,-550 67,-550 67,-586"/>
<text text-anchor="middle" x="40" y="-564.3" font-family="Helvetica,sans-Serif" font-size="14.00">0</text>
</g>
<!-- 7703171092284058863&#45;&gt;5877015526136174526 -->
<g id="edge5" class="edge"><title>7703171092284058863&#45;&gt;5877015526136174526</title>
<path fill="none" stroke="black" d="M40,-513.98C40,-522.743 40,-531.821 40,-539.937"/>
<polygon fill="black" stroke="black" points="36.5001,-539.942 40,-549.942 43.5001,-539.942 36.5001,-539.942"/>
</g>
</g>
</svg>
