<?xml version="1.0" encoding="UTF-8" standalone="no"?>
<!DOCTYPE svg PUBLIC "-//W3C//DTD SVG 1.1//EN"
 "http://www.w3.org/Graphics/SVG/1.1/DTD/svg11.dtd">
<!-- Generated by graphviz version 2.30.1 (20180420.1509)
 -->
<!-- Title: %3 Pages: 1 -->
<svg width="379pt" height="4364pt"
 viewBox="0.00 0.00 379.00 4364.00" xmlns="http://www.w3.org/2000/svg" xmlns:xlink="http://www.w3.org/1999/xlink">
<g id="graph0" class="graph" transform="scale(1 1) rotate(0) translate(4 4360)">
<title>%3</title>
<polygon fill="white" stroke="white" points="-4,5 -4,-4360 376,-4360 376,5 -4,5"/>
<!-- &#45;6019877292722729642 -->
<g id="node1" class="node"><title>&#45;6019877292722729642</title>
<ellipse fill="none" stroke="black" cx="76" cy="-2761" rx="36.2938" ry="36.2938"/>
<text text-anchor="middle" x="76" y="-2757.3" font-family="Helvetica,sans-Serif" font-size="14.00">assign</text>
</g>
<!-- 2497430418051922182 -->
<g id="node2" class="node"><title>2497430418051922182</title>
<polygon fill="none" stroke="black" points="103,-2870 49,-2870 49,-2834 103,-2834 103,-2870"/>
<text text-anchor="middle" x="76" y="-2848.3" font-family="Helvetica,sans-Serif" font-size="14.00">0</text>
</g>
<!-- &#45;6019877292722729642&#45;&gt;2497430418051922182 -->
<g id="edge1" class="edge"><title>&#45;6019877292722729642&#45;&gt;2497430418051922182</title>
<path fill="none" stroke="black" d="M76,-2797.43C76,-2806.06 76,-2815.16 76,-2823.37"/>
<polygon fill="black" stroke="black" points="72.5001,-2823.52 76,-2833.52 79.5001,-2823.52 72.5001,-2823.52"/>
</g>
<!-- &#45;436003094965818497 -->
<g id="node48" class="node"><title>&#45;436003094965818497</title>
<ellipse fill="none" stroke="black" cx="76" cy="-2947" rx="40.0939" ry="40.0939"/>
<text text-anchor="middle" x="76" y="-2943.3" font-family="Helvetica,sans-Serif" font-size="14.00">getitem</text>
</g>
<!-- 2497430418051922182&#45;&gt;&#45;436003094965818497 -->
<g id="edge55" class="edge"><title>2497430418051922182&#45;&gt;&#45;436003094965818497</title>
<path fill="none" stroke="black" d="M76,-2870.06C76,-2877.61 76,-2886.91 76,-2896.39"/>
<polygon fill="black" stroke="black" points="72.5001,-2896.67 76,-2906.67 79.5001,-2896.67 72.5001,-2896.67"/>
</g>
<!-- &#45;1431612779325399339 -->
<g id="node3" class="node"><title>&#45;1431612779325399339</title>
<polygon fill="none" stroke="black" points="134,-2688 80,-2688 80,-2652 134,-2652 134,-2688"/>
<text text-anchor="middle" x="107" y="-2666.3" font-family="Helvetica,sans-Serif" font-size="14.00">0</text>
</g>
<!-- &#45;1431612779325399339&#45;&gt;&#45;6019877292722729642 -->
<g id="edge2" class="edge"><title>&#45;1431612779325399339&#45;&gt;&#45;6019877292722729642</title>
<path fill="none" stroke="black" d="M101.023,-2688.16C98.1696,-2696.35 94.6134,-2706.56 91.0858,-2716.69"/>
<polygon fill="black" stroke="black" points="87.7205,-2715.71 87.7363,-2726.31 94.331,-2718.01 87.7205,-2715.71"/>
</g>
<!-- 3260336296559551021 -->
<g id="node4" class="node"><title>3260336296559551021</title>
<polygon fill="none" stroke="black" points="141,-2338 87,-2338 87,-2302 141,-2302 141,-2338"/>
<text text-anchor="middle" x="114" y="-2316.3" font-family="Helvetica,sans-Serif" font-size="14.00">0</text>
</g>
<!-- 3260336296559551021&#45;&gt;&#45;6019877292722729642 -->
<g id="edge3" class="edge"><title>3260336296559551021&#45;&gt;&#45;6019877292722729642</title>
<path fill="none" stroke="black" d="M93.1653,-2338.01C82.9892,-2347.5 71.5535,-2360.19 65,-2374 39.0267,-2428.74 46,-2448.41 46,-2509 46,-2509 46,-2509 46,-2591 46,-2633.8 55.4449,-2681.78 63.7356,-2715.65"/>
<polygon fill="black" stroke="black" points="60.4264,-2716.84 66.2599,-2725.68 67.215,-2715.13 60.4264,-2716.84"/>
</g>
<!-- &#45;1899607853284178312 -->
<g id="node46" class="node"><title>&#45;1899607853284178312</title>
<ellipse fill="none" stroke="black" cx="114" cy="-2415" rx="40.0939" ry="40.0939"/>
<text text-anchor="middle" x="114" y="-2411.3" font-family="Helvetica,sans-Serif" font-size="14.00">getitem</text>
</g>
<!-- 3260336296559551021&#45;&gt;&#45;1899607853284178312 -->
<g id="edge51" class="edge"><title>3260336296559551021&#45;&gt;&#45;1899607853284178312</title>
<path fill="none" stroke="black" d="M114,-2338.06C114,-2345.61 114,-2354.91 114,-2364.39"/>
<polygon fill="black" stroke="black" points="110.5,-2364.67 114,-2374.67 117.5,-2364.67 110.5,-2364.67"/>
</g>
<!-- 1218942434740220020 -->
<g id="node47" class="node"><title>1218942434740220020</title>
<ellipse fill="none" stroke="black" cx="213" cy="-2415" rx="40.0939" ry="40.0939"/>
<text text-anchor="middle" x="213" y="-2411.3" font-family="Helvetica,sans-Serif" font-size="14.00">getitem</text>
</g>
<!-- 3260336296559551021&#45;&gt;1218942434740220020 -->
<g id="edge53" class="edge"><title>3260336296559551021&#45;&gt;1218942434740220020</title>
<path fill="none" stroke="black" d="M132.158,-2338.06C144.517,-2349.67 161.305,-2365.44 176.38,-2379.6"/>
<polygon fill="black" stroke="black" points="174.389,-2382.53 184.074,-2386.83 179.182,-2377.43 174.389,-2382.53"/>
</g>
<!-- &#45;6889638407809548516 -->
<g id="node5" class="node"><title>&#45;6889638407809548516</title>
<ellipse fill="none" stroke="black" cx="114" cy="-1853" rx="40.0939" ry="40.0939"/>
<text text-anchor="middle" x="114" y="-1849.3" font-family="Helvetica,sans-Serif" font-size="14.00">getitem</text>
</g>
<!-- &#45;5394755114567738838 -->
<g id="node6" class="node"><title>&#45;5394755114567738838</title>
<polygon fill="none" stroke="black" points="141,-1966 87,-1966 87,-1930 141,-1930 141,-1966"/>
<text text-anchor="middle" x="114" y="-1944.3" font-family="Helvetica,sans-Serif" font-size="14.00">0</text>
</g>
<!-- &#45;6889638407809548516&#45;&gt;&#45;5394755114567738838 -->
<g id="edge4" class="edge"><title>&#45;6889638407809548516&#45;&gt;&#45;5394755114567738838</title>
<path fill="none" stroke="black" d="M114,-1893.44C114,-1902.25 114,-1911.41 114,-1919.61"/>
<polygon fill="black" stroke="black" points="110.5,-1919.73 114,-1929.73 117.5,-1919.73 110.5,-1919.73"/>
</g>
<!-- &#45;7056337134126347154 -->
<g id="node40" class="node"><title>&#45;7056337134126347154</title>
<ellipse fill="none" stroke="black" cx="114" cy="-2043" rx="40.0939" ry="40.0939"/>
<text text-anchor="middle" x="114" y="-2039.3" font-family="Helvetica,sans-Serif" font-size="14.00">getitem</text>
</g>
<!-- &#45;5394755114567738838&#45;&gt;&#45;7056337134126347154 -->
<g id="edge44" class="edge"><title>&#45;5394755114567738838&#45;&gt;&#45;7056337134126347154</title>
<path fill="none" stroke="black" d="M114,-1966.06C114,-1973.61 114,-1982.91 114,-1992.39"/>
<polygon fill="black" stroke="black" points="110.5,-1992.67 114,-2002.67 117.5,-1992.67 110.5,-1992.67"/>
</g>
<!-- &#45;2508794563638836071 -->
<g id="node7" class="node"><title>&#45;2508794563638836071</title>
<polygon fill="none" stroke="black" points="175,-1776 121,-1776 121,-1740 175,-1740 175,-1776"/>
<text text-anchor="middle" x="148" y="-1754.3" font-family="Helvetica,sans-Serif" font-size="14.00">0</text>
</g>
<!-- &#45;2508794563638836071&#45;&gt;&#45;6889638407809548516 -->
<g id="edge5" class="edge"><title>&#45;2508794563638836071&#45;&gt;&#45;6889638407809548516</title>
<path fill="none" stroke="black" d="M141.764,-1776.06C138.711,-1784.41 134.871,-1794.91 131.029,-1805.42"/>
<polygon fill="black" stroke="black" points="127.67,-1804.42 127.523,-1815.01 134.244,-1806.82 127.67,-1804.42"/>
</g>
<!-- &#45;3624170540808947795 -->
<g id="node8" class="node"><title>&#45;3624170540808947795</title>
<polygon fill="none" stroke="black" points="255,-36 201,-36 201,-0 255,-0 255,-36"/>
<text text-anchor="middle" x="228" y="-14.3" font-family="Helvetica,sans-Serif" font-size="14.00">0</text>
</g>
<!-- &#45;3624170540808947795&#45;&gt;&#45;6889638407809548516 -->
<g id="edge6" class="edge"><title>&#45;3624170540808947795&#45;&gt;&#45;6889638407809548516</title>
<path fill="none" stroke="black" d="M200.946,-31.351C183.221,-40.5309 160.543,-54.4776 145,-72 100.809,-121.817 80,-140.407 80,-207 80,-207 80,-207 80,-1676 80,-1720.04 90.3918,-1769.18 99.6853,-1804.32"/>
<polygon fill="black" stroke="black" points="96.3963,-1805.56 102.394,-1814.3 103.152,-1803.73 96.3963,-1805.56"/>
</g>
<!-- &#45;4868510826596384812 -->
<g id="node22" class="node"><title>&#45;4868510826596384812</title>
<ellipse fill="none" stroke="black" cx="194" cy="-113" rx="40.0939" ry="40.0939"/>
<text text-anchor="middle" x="194" y="-109.3" font-family="Helvetica,sans-Serif" font-size="14.00">getitem</text>
</g>
<!-- &#45;3624170540808947795&#45;&gt;&#45;4868510826596384812 -->
<g id="edge20" class="edge"><title>&#45;3624170540808947795&#45;&gt;&#45;4868510826596384812</title>
<path fill="none" stroke="black" d="M221.764,-36.0576C218.711,-44.4084 214.871,-54.9113 211.029,-65.4196"/>
<polygon fill="black" stroke="black" points="207.67,-64.4163 207.523,-75.0101 214.244,-66.8199 207.67,-64.4163"/>
</g>
<!-- 3601827350975481867 -->
<g id="node32" class="node"><title>3601827350975481867</title>
<ellipse fill="none" stroke="black" cx="266" cy="-485" rx="40.0939" ry="40.0939"/>
<text text-anchor="middle" x="266" y="-481.3" font-family="Helvetica,sans-Serif" font-size="14.00">getitem</text>
</g>
<!-- &#45;3624170540808947795&#45;&gt;3601827350975481867 -->
<g id="edge32" class="edge"><title>&#45;3624170540808947795&#45;&gt;3601827350975481867</title>
<path fill="none" stroke="black" d="M233.46,-36.0387C236.607,-46.3586 240.435,-59.8358 243,-72 255.501,-131.288 262,-146.409 262,-207 262,-207 262,-207 262,-300 262,-345.562 263.241,-397.454 264.341,-434.489"/>
<polygon fill="black" stroke="black" points="260.843,-434.634 264.646,-444.523 267.84,-434.421 260.843,-434.634"/>
</g>
<!-- &#45;7050354541114014640 -->
<g id="node36" class="node"><title>&#45;7050354541114014640</title>
<ellipse fill="none" stroke="black" cx="330" cy="-113" rx="40.0939" ry="40.0939"/>
<text text-anchor="middle" x="330" y="-109.3" font-family="Helvetica,sans-Serif" font-size="14.00">getitem</text>
</g>
<!-- &#45;3624170540808947795&#45;&gt;&#45;7050354541114014640 -->
<g id="edge38" class="edge"><title>&#45;3624170540808947795&#45;&gt;&#45;7050354541114014640</title>
<path fill="none" stroke="black" d="M246.708,-36.0576C259.658,-47.8644 277.325,-63.9732 293.057,-78.3171"/>
<polygon fill="black" stroke="black" points="290.848,-81.039 300.596,-85.1902 295.564,-75.8663 290.848,-81.039"/>
</g>
<!-- &#45;3848607386115087923 -->
<g id="node9" class="node"><title>&#45;3848607386115087923</title>
<ellipse fill="none" stroke="black" cx="239" cy="-1507" rx="30.5947" ry="30.5947"/>
<text text-anchor="middle" x="239" y="-1503.3" font-family="Helvetica,sans-Serif" font-size="14.00">and_</text>
</g>
<!-- &#45;3688116839216989091 -->
<g id="node10" class="node"><title>&#45;3688116839216989091</title>
<polygon fill="none" stroke="black" points="240,-1610 186,-1610 186,-1574 240,-1574 240,-1610"/>
<text text-anchor="middle" x="213" y="-1588.3" font-family="Helvetica,sans-Serif" font-size="14.00">0</text>
</g>
<!-- &#45;3848607386115087923&#45;&gt;&#45;3688116839216989091 -->
<g id="edge7" class="edge"><title>&#45;3848607386115087923&#45;&gt;&#45;3688116839216989091</title>
<path fill="none" stroke="black" d="M230.052,-1536.56C227.265,-1545.46 224.202,-1555.24 221.45,-1564.03"/>
<polygon fill="black" stroke="black" points="218.046,-1563.18 218.397,-1573.77 224.726,-1565.27 218.046,-1563.18"/>
</g>
<!-- 8878273777634577439 -->
<g id="node39" class="node"><title>8878273777634577439</title>
<ellipse fill="none" stroke="black" cx="162" cy="-1675" rx="28.6953" ry="28.6953"/>
<text text-anchor="middle" x="162" y="-1671.3" font-family="Helvetica,sans-Serif" font-size="14.00">fillna</text>
</g>
<!-- &#45;3688116839216989091&#45;&gt;8878273777634577439 -->
<g id="edge42" class="edge"><title>&#45;3688116839216989091&#45;&gt;8878273777634577439</title>
<path fill="none" stroke="black" d="M202.184,-1610.18C196.428,-1619.32 189.157,-1630.87 182.387,-1641.62"/>
<polygon fill="black" stroke="black" points="179.229,-1640.07 176.863,-1650.39 185.153,-1643.8 179.229,-1640.07"/>
</g>
<!-- &#45;1226479650268624919 -->
<g id="node11" class="node"><title>&#45;1226479650268624919</title>
<polygon fill="none" stroke="black" points="266,-1440 212,-1440 212,-1404 266,-1404 266,-1440"/>
<text text-anchor="middle" x="239" y="-1418.3" font-family="Helvetica,sans-Serif" font-size="14.00">0</text>
</g>
<!-- &#45;1226479650268624919&#45;&gt;&#45;3848607386115087923 -->
<g id="edge8" class="edge"><title>&#45;1226479650268624919&#45;&gt;&#45;3848607386115087923</title>
<path fill="none" stroke="black" d="M239,-1440.2C239,-1447.79 239,-1457.05 239,-1466.21"/>
<polygon fill="black" stroke="black" points="235.5,-1466.4 239,-1476.4 242.5,-1466.4 235.5,-1466.4"/>
</g>
<!-- 6735069057679953062 -->
<g id="node12" class="node"><title>6735069057679953062</title>
<polygon fill="none" stroke="black" points="361,-598 307,-598 307,-562 361,-562 361,-598"/>
<text text-anchor="middle" x="334" y="-576.3" font-family="Helvetica,sans-Serif" font-size="14.00">0</text>
</g>
<!-- 6735069057679953062&#45;&gt;&#45;3848607386115087923 -->
<g id="edge9" class="edge"><title>6735069057679953062&#45;&gt;&#45;3848607386115087923</title>
<path fill="none" stroke="black" d="M334,-598.125C334,-630.121 334,-701.156 334,-761 334,-761 334,-761 334,-1338 334,-1392.83 295.186,-1446.2 267.178,-1477.58"/>
<polygon fill="black" stroke="black" points="264.491,-1475.34 260.32,-1485.07 269.654,-1480.06 264.491,-1475.34"/>
</g>
<!-- 1093471042491472143 -->
<g id="node13" class="node"><title>1093471042491472143</title>
<ellipse fill="none" stroke="black" cx="239" cy="-1337" rx="30.5947" ry="30.5947"/>
<text text-anchor="middle" x="239" y="-1333.3" font-family="Helvetica,sans-Serif" font-size="14.00">and_</text>
</g>
<!-- 1093471042491472143&#45;&gt;&#45;1226479650268624919 -->
<g id="edge10" class="edge"><title>1093471042491472143&#45;&gt;&#45;1226479650268624919</title>
<path fill="none" stroke="black" d="M239,-1367.96C239,-1376.36 239,-1385.44 239,-1393.67"/>
<polygon fill="black" stroke="black" points="235.5,-1393.88 239,-1403.88 242.5,-1393.88 235.5,-1393.88"/>
</g>
<!-- 9156349673411636713 -->
<g id="node14" class="node"><title>9156349673411636713</title>
<polygon fill="none" stroke="black" points="235,-1270 181,-1270 181,-1234 235,-1234 235,-1270"/>
<text text-anchor="middle" x="208" y="-1248.3" font-family="Helvetica,sans-Serif" font-size="14.00">0</text>
</g>
<!-- 9156349673411636713&#45;&gt;1093471042491472143 -->
<g id="edge11" class="edge"><title>9156349673411636713&#45;&gt;1093471042491472143</title>
<path fill="none" stroke="black" d="M214.423,-1270.2C217.482,-1278.39 221.27,-1288.53 224.948,-1298.38"/>
<polygon fill="black" stroke="black" points="221.78,-1299.9 228.558,-1308.04 228.338,-1297.45 221.78,-1299.9"/>
</g>
<!-- 6111328964431835396 -->
<g id="node15" class="node"><title>6111328964431835396</title>
<polygon fill="none" stroke="black" points="306,-1185 252,-1185 252,-1149 306,-1149 306,-1185"/>
<text text-anchor="middle" x="279" y="-1163.3" font-family="Helvetica,sans-Serif" font-size="14.00">0</text>
</g>
<!-- 6111328964431835396&#45;&gt;1093471042491472143 -->
<g id="edge12" class="edge"><title>6111328964431835396&#45;&gt;1093471042491472143</title>
<path fill="none" stroke="black" d="M274.944,-1185.03C268.726,-1211.15 256.671,-1261.78 248.244,-1297.18"/>
<polygon fill="black" stroke="black" points="244.775,-1296.63 245.863,-1307.17 251.585,-1298.26 244.775,-1296.63"/>
</g>
<!-- &#45;3662869744399713372 -->
<g id="node16" class="node"><title>&#45;3662869744399713372</title>
<ellipse fill="none" stroke="black" cx="203" cy="-1167" rx="30.5947" ry="30.5947"/>
<text text-anchor="middle" x="203" y="-1163.3" font-family="Helvetica,sans-Serif" font-size="14.00">and_</text>
</g>
<!-- &#45;3662869744399713372&#45;&gt;9156349673411636713 -->
<g id="edge13" class="edge"><title>&#45;3662869744399713372&#45;&gt;9156349673411636713</title>
<path fill="none" stroke="black" d="M204.777,-1197.5C205.29,-1206.01 205.848,-1215.27 206.353,-1223.65"/>
<polygon fill="black" stroke="black" points="202.862,-1223.91 206.957,-1233.68 209.849,-1223.49 202.862,-1223.91"/>
</g>
<!-- 2455018062802027801 -->
<g id="node17" class="node"><title>2455018062802027801</title>
<polygon fill="none" stroke="black" points="177,-1100 123,-1100 123,-1064 177,-1064 177,-1100"/>
<text text-anchor="middle" x="150" y="-1078.3" font-family="Helvetica,sans-Serif" font-size="14.00">0</text>
</g>
<!-- 2455018062802027801&#45;&gt;&#45;3662869744399713372 -->
<g id="edge14" class="edge"><title>2455018062802027801&#45;&gt;&#45;3662869744399713372</title>
<path fill="none" stroke="black" d="M160.982,-1100.2C166.915,-1109.49 174.451,-1121.29 181.497,-1132.33"/>
<polygon fill="black" stroke="black" points="178.672,-1134.4 187.004,-1140.95 184.572,-1130.64 178.672,-1134.4"/>
</g>
<!-- 8890006736093552134 -->
<g id="node18" class="node"><title>8890006736093552134</title>
<polygon fill="none" stroke="black" points="249,-1100 195,-1100 195,-1064 249,-1064 249,-1100"/>
<text text-anchor="middle" x="222" y="-1078.3" font-family="Helvetica,sans-Serif" font-size="14.00">0</text>
</g>
<!-- 8890006736093552134&#45;&gt;&#45;3662869744399713372 -->
<g id="edge15" class="edge"><title>8890006736093552134&#45;&gt;&#45;3662869744399713372</title>
<path fill="none" stroke="black" d="M218.063,-1100.2C216.256,-1108.09 214.034,-1117.8 211.858,-1127.31"/>
<polygon fill="black" stroke="black" points="208.445,-1126.53 209.625,-1137.06 215.269,-1128.09 208.445,-1126.53"/>
</g>
<!-- &#45;6836860026121634858 -->
<g id="node19" class="node"><title>&#45;6836860026121634858</title>
<ellipse fill="none" stroke="black" cx="150" cy="-997" rx="30.5947" ry="30.5947"/>
<text text-anchor="middle" x="150" y="-993.3" font-family="Helvetica,sans-Serif" font-size="14.00">and_</text>
</g>
<!-- &#45;6836860026121634858&#45;&gt;2455018062802027801 -->
<g id="edge16" class="edge"><title>&#45;6836860026121634858&#45;&gt;2455018062802027801</title>
<path fill="none" stroke="black" d="M150,-1027.96C150,-1036.36 150,-1045.44 150,-1053.67"/>
<polygon fill="black" stroke="black" points="146.5,-1053.88 150,-1063.88 153.5,-1053.88 146.5,-1053.88"/>
</g>
<!-- 150947979391971056 -->
<g id="node20" class="node"><title>150947979391971056</title>
<polygon fill="none" stroke="black" points="162,-930 108,-930 108,-894 162,-894 162,-930"/>
<text text-anchor="middle" x="135" y="-908.3" font-family="Helvetica,sans-Serif" font-size="14.00">0</text>
</g>
<!-- 150947979391971056&#45;&gt;&#45;6836860026121634858 -->
<g id="edge17" class="edge"><title>150947979391971056&#45;&gt;&#45;6836860026121634858</title>
<path fill="none" stroke="black" d="M138.108,-930.198C139.507,-937.939 141.221,-947.422 142.907,-956.753"/>
<polygon fill="black" stroke="black" points="139.487,-957.51 144.71,-966.728 146.376,-956.265 139.487,-957.51"/>
</g>
<!-- 1905989385886050356 -->
<g id="node21" class="node"><title>1905989385886050356</title>
<polygon fill="none" stroke="black" points="234,-930 180,-930 180,-894 234,-894 234,-930"/>
<text text-anchor="middle" x="207" y="-908.3" font-family="Helvetica,sans-Serif" font-size="14.00">0</text>
</g>
<!-- 1905989385886050356&#45;&gt;&#45;6836860026121634858 -->
<g id="edge18" class="edge"><title>1905989385886050356&#45;&gt;&#45;6836860026121634858</title>
<path fill="none" stroke="black" d="M195.19,-930.198C188.693,-939.657 180.411,-951.718 172.716,-962.923"/>
<polygon fill="black" stroke="black" points="169.761,-961.043 166.985,-971.268 175.531,-965.006 169.761,-961.043"/>
</g>
<!-- &#45;3346860195338098852 -->
<g id="node23" class="node"><title>&#45;3346860195338098852</title>
<polygon fill="none" stroke="black" points="214,-226 160,-226 160,-190 214,-190 214,-226"/>
<text text-anchor="middle" x="187" y="-204.3" font-family="Helvetica,sans-Serif" font-size="14.00">0</text>
</g>
<!-- &#45;4868510826596384812&#45;&gt;&#45;3346860195338098852 -->
<g id="edge19" class="edge"><title>&#45;4868510826596384812&#45;&gt;&#45;3346860195338098852</title>
<path fill="none" stroke="black" d="M191.031,-153.44C190.368,-162.252 189.679,-171.411 189.062,-179.61"/>
<polygon fill="black" stroke="black" points="185.561,-179.491 188.3,-189.725 192.541,-180.016 185.561,-179.491"/>
</g>
<!-- 5500989936516837150 -->
<g id="node24" class="node"><title>5500989936516837150</title>
<ellipse fill="none" stroke="black" cx="187" cy="-299" rx="36.2938" ry="36.2938"/>
<text text-anchor="middle" x="187" y="-295.3" font-family="Helvetica,sans-Serif" font-size="14.00">astype</text>
</g>
<!-- &#45;3346860195338098852&#45;&gt;5500989936516837150 -->
<g id="edge22" class="edge"><title>&#45;3346860195338098852&#45;&gt;5500989936516837150</title>
<path fill="none" stroke="black" d="M187,-226.16C187,-233.727 187,-243.017 187,-252.373"/>
<polygon fill="black" stroke="black" points="183.5,-252.473 187,-262.473 190.5,-252.473 183.5,-252.473"/>
</g>
<!-- &#45;4694619368279286497 -->
<g id="node25" class="node"><title>&#45;4694619368279286497</title>
<polygon fill="none" stroke="black" points="200,-408 146,-408 146,-372 200,-372 200,-408"/>
<text text-anchor="middle" x="173" y="-386.3" font-family="Helvetica,sans-Serif" font-size="14.00">0</text>
</g>
<!-- 5500989936516837150&#45;&gt;&#45;4694619368279286497 -->
<g id="edge21" class="edge"><title>5500989936516837150&#45;&gt;&#45;4694619368279286497</title>
<path fill="none" stroke="black" d="M181.467,-335.175C180.07,-344.058 178.591,-353.459 177.267,-361.877"/>
<polygon fill="black" stroke="black" points="173.787,-361.477 175.69,-371.899 180.702,-362.565 173.787,-361.477"/>
</g>
<!-- 4612812561772450694 -->
<g id="node26" class="node"><title>4612812561772450694</title>
<ellipse fill="none" stroke="black" cx="169" cy="-485" rx="38.1938" ry="38.1938"/>
<text text-anchor="middle" x="169" y="-481.3" font-family="Helvetica,sans-Serif" font-size="14.00">dt&#45;floor</text>
</g>
<!-- &#45;4694619368279286497&#45;&gt;4612812561772450694 -->
<g id="edge24" class="edge"><title>&#45;4694619368279286497&#45;&gt;4612812561772450694</title>
<path fill="none" stroke="black" d="M172.266,-408.058C171.918,-416.159 171.482,-426.287 171.044,-436.479"/>
<polygon fill="black" stroke="black" points="167.541,-436.48 170.608,-446.621 174.534,-436.781 167.541,-436.48"/>
</g>
<!-- 9135842986705481537 -->
<g id="node27" class="node"><title>9135842986705481537</title>
<polygon fill="none" stroke="black" points="196,-598 142,-598 142,-562 196,-562 196,-598"/>
<text text-anchor="middle" x="169" y="-576.3" font-family="Helvetica,sans-Serif" font-size="14.00">0</text>
</g>
<!-- 4612812561772450694&#45;&gt;9135842986705481537 -->
<g id="edge23" class="edge"><title>4612812561772450694&#45;&gt;9135842986705481537</title>
<path fill="none" stroke="black" d="M169,-523.559C169,-533.02 169,-542.995 169,-551.836"/>
<polygon fill="black" stroke="black" points="165.5,-551.946 169,-561.946 172.5,-551.946 165.5,-551.946"/>
</g>
<!-- &#45;3988265470307669078 -->
<g id="node28" class="node"><title>&#45;3988265470307669078</title>
<ellipse fill="none" stroke="black" cx="169" cy="-671" rx="36.2938" ry="36.2938"/>
<text text-anchor="middle" x="169" y="-667.3" font-family="Helvetica,sans-Serif" font-size="14.00">astype</text>
</g>
<!-- 9135842986705481537&#45;&gt;&#45;3988265470307669078 -->
<g id="edge26" class="edge"><title>9135842986705481537&#45;&gt;&#45;3988265470307669078</title>
<path fill="none" stroke="black" d="M169,-598.16C169,-605.727 169,-615.017 169,-624.373"/>
<polygon fill="black" stroke="black" points="165.5,-624.473 169,-634.473 172.5,-624.473 165.5,-624.473"/>
</g>
<!-- &#45;6035487108592669612 -->
<g id="node29" class="node"><title>&#45;6035487108592669612</title>
<polygon fill="none" stroke="black" points="196,-780 142,-780 142,-744 196,-744 196,-780"/>
<text text-anchor="middle" x="169" y="-758.3" font-family="Helvetica,sans-Serif" font-size="14.00">0</text>
</g>
<!-- &#45;3988265470307669078&#45;&gt;&#45;6035487108592669612 -->
<g id="edge25" class="edge"><title>&#45;3988265470307669078&#45;&gt;&#45;6035487108592669612</title>
<path fill="none" stroke="black" d="M169,-707.431C169,-716.059 169,-725.163 169,-733.369"/>
<polygon fill="black" stroke="black" points="165.5,-733.523 169,-743.523 172.5,-733.523 165.5,-733.523"/>
</g>
<!-- &#45;6888461824566095513 -->
<g id="node30" class="node"><title>&#45;6888461824566095513</title>
<ellipse fill="none" stroke="black" cx="142" cy="-837" rx="20.5982" ry="20.5982"/>
<text text-anchor="middle" x="142" y="-833.3" font-family="Helvetica,sans-Serif" font-size="14.00">ge</text>
</g>
<!-- &#45;6035487108592669612&#45;&gt;&#45;6888461824566095513 -->
<g id="edge28" class="edge"><title>&#45;6035487108592669612&#45;&gt;&#45;6888461824566095513</title>
<path fill="none" stroke="black" d="M162.601,-780.3C159.578,-788.474 155.89,-798.444 152.475,-807.678"/>
<polygon fill="black" stroke="black" points="149.107,-806.696 148.92,-817.29 155.672,-809.125 149.107,-806.696"/>
</g>
<!-- 1238111161789312380 -->
<g id="node31" class="node"><title>1238111161789312380</title>
<ellipse fill="none" stroke="black" cx="203" cy="-837" rx="18" ry="18"/>
<text text-anchor="middle" x="203" y="-833.3" font-family="Helvetica,sans-Serif" font-size="14.00">lt</text>
</g>
<!-- &#45;6035487108592669612&#45;&gt;1238111161789312380 -->
<g id="edge30" class="edge"><title>&#45;6035487108592669612&#45;&gt;1238111161789312380</title>
<path fill="none" stroke="black" d="M177.058,-780.3C181.343,-789.502 186.689,-800.98 191.413,-811.121"/>
<polygon fill="black" stroke="black" points="188.301,-812.73 195.696,-820.317 194.646,-809.775 188.301,-812.73"/>
</g>
<!-- &#45;6888461824566095513&#45;&gt;150947979391971056 -->
<g id="edge27" class="edge"><title>&#45;6888461824566095513&#45;&gt;150947979391971056</title>
<path fill="none" stroke="black" d="M140.087,-857.948C139.336,-865.784 138.461,-874.911 137.65,-883.364"/>
<polygon fill="black" stroke="black" points="134.143,-883.273 136.672,-893.561 141.111,-883.941 134.143,-883.273"/>
</g>
<!-- 1238111161789312380&#45;&gt;1905989385886050356 -->
<g id="edge29" class="edge"><title>1238111161789312380&#45;&gt;1905989385886050356</title>
<path fill="none" stroke="black" d="M203.948,-855.3C204.411,-863.755 204.98,-874.131 205.5,-883.627"/>
<polygon fill="black" stroke="black" points="202.017,-884.031 206.059,-893.824 209.006,-883.648 202.017,-884.031"/>
</g>
<!-- &#45;3726364069762610954 -->
<g id="node33" class="node"><title>&#45;3726364069762610954</title>
<polygon fill="none" stroke="black" points="306,-930 252,-930 252,-894 306,-894 306,-930"/>
<text text-anchor="middle" x="279" y="-908.3" font-family="Helvetica,sans-Serif" font-size="14.00">0</text>
</g>
<!-- 3601827350975481867&#45;&gt;&#45;3726364069762610954 -->
<g id="edge31" class="edge"><title>3601827350975481867&#45;&gt;&#45;3726364069762610954</title>
<path fill="none" stroke="black" d="M268.031,-525.47C269.772,-562.721 272,-620.14 272,-670 272,-670 272,-670 272,-763 272,-805.154 274.868,-853.986 276.933,-883.673"/>
<polygon fill="black" stroke="black" points="273.445,-883.971 277.65,-893.696 280.427,-883.471 273.445,-883.971"/>
</g>
<!-- 6339799479960093718 -->
<g id="node34" class="node"><title>6339799479960093718</title>
<ellipse fill="none" stroke="black" cx="222" cy="-997" rx="20.5982" ry="20.5982"/>
<text text-anchor="middle" x="222" y="-993.3" font-family="Helvetica,sans-Serif" font-size="14.00">ge</text>
</g>
<!-- &#45;3726364069762610954&#45;&gt;6339799479960093718 -->
<g id="edge34" class="edge"><title>&#45;3726364069762610954&#45;&gt;6339799479960093718</title>
<path fill="none" stroke="black" d="M267.19,-930.198C259.135,-941.926 248.335,-957.652 239.313,-970.79"/>
<polygon fill="black" stroke="black" points="236.182,-969.166 233.406,-979.391 241.953,-973.129 236.182,-969.166"/>
</g>
<!-- &#45;5972852499249070765 -->
<g id="node35" class="node"><title>&#45;5972852499249070765</title>
<ellipse fill="none" stroke="black" cx="279" cy="-997" rx="18" ry="18"/>
<text text-anchor="middle" x="279" y="-993.3" font-family="Helvetica,sans-Serif" font-size="14.00">le</text>
</g>
<!-- &#45;3726364069762610954&#45;&gt;&#45;5972852499249070765 -->
<g id="edge36" class="edge"><title>&#45;3726364069762610954&#45;&gt;&#45;5972852499249070765</title>
<path fill="none" stroke="black" d="M279,-930.198C279,-941.326 279,-956.055 279,-968.756"/>
<polygon fill="black" stroke="black" points="275.5,-968.824 279,-978.824 282.5,-968.824 275.5,-968.824"/>
</g>
<!-- 6339799479960093718&#45;&gt;8890006736093552134 -->
<g id="edge33" class="edge"><title>6339799479960093718&#45;&gt;8890006736093552134</title>
<path fill="none" stroke="black" d="M222,-1018.09C222,-1028.82 222,-1042.17 222,-1053.81"/>
<polygon fill="black" stroke="black" points="218.5,-1053.9 222,-1063.9 225.5,-1053.9 218.5,-1053.9"/>
</g>
<!-- &#45;5972852499249070765&#45;&gt;6111328964431835396 -->
<g id="edge35" class="edge"><title>&#45;5972852499249070765&#45;&gt;6111328964431835396</title>
<path fill="none" stroke="black" d="M279,-1015.03C279,-1044.09 279,-1103.48 279,-1138.48"/>
<polygon fill="black" stroke="black" points="275.5,-1138.92 279,-1148.92 282.5,-1138.92 275.5,-1138.92"/>
</g>
<!-- 2028484002905594954 -->
<g id="node37" class="node"><title>2028484002905594954</title>
<polygon fill="none" stroke="black" points="358,-226 304,-226 304,-190 358,-190 358,-226"/>
<text text-anchor="middle" x="331" y="-204.3" font-family="Helvetica,sans-Serif" font-size="14.00">0</text>
</g>
<!-- &#45;7050354541114014640&#45;&gt;2028484002905594954 -->
<g id="edge37" class="edge"><title>&#45;7050354541114014640&#45;&gt;2028484002905594954</title>
<path fill="none" stroke="black" d="M330.424,-153.44C330.519,-162.252 330.617,-171.411 330.705,-179.61"/>
<polygon fill="black" stroke="black" points="327.207,-179.764 330.814,-189.725 334.206,-179.688 327.207,-179.764"/>
</g>
<!-- 5400497829250551276 -->
<g id="node38" class="node"><title>5400497829250551276</title>
<ellipse fill="none" stroke="black" cx="333" cy="-299" rx="18" ry="18"/>
<text text-anchor="middle" x="333" y="-295.3" font-family="Helvetica,sans-Serif" font-size="14.00">lt</text>
</g>
<!-- 2028484002905594954&#45;&gt;5400497829250551276 -->
<g id="edge40" class="edge"><title>2028484002905594954&#45;&gt;5400497829250551276</title>
<path fill="none" stroke="black" d="M331.386,-226.16C331.668,-238.719 332.057,-256.021 332.382,-270.498"/>
<polygon fill="black" stroke="black" points="328.892,-270.974 332.616,-280.893 335.89,-270.816 328.892,-270.974"/>
</g>
<!-- 5400497829250551276&#45;&gt;6735069057679953062 -->
<g id="edge39" class="edge"><title>5400497829250551276&#45;&gt;6735069057679953062</title>
<path fill="none" stroke="black" d="M333.061,-317.033C333.229,-363.826 333.698,-494.648 333.902,-551.755"/>
<polygon fill="black" stroke="black" points="330.403,-551.848 333.938,-561.836 337.403,-551.823 330.403,-551.848"/>
</g>
<!-- 8878273777634577439&#45;&gt;&#45;2508794563638836071 -->
<g id="edge41" class="edge"><title>8878273777634577439&#45;&gt;&#45;2508794563638836071</title>
<path fill="none" stroke="black" d="M157.26,-1703.42C155.771,-1712.04 154.13,-1721.54 152.647,-1730.11"/>
<polygon fill="black" stroke="black" points="149.193,-1729.55 150.939,-1740 156.091,-1730.74 149.193,-1729.55"/>
</g>
<!-- &#45;1121978265030519578 -->
<g id="node41" class="node"><title>&#45;1121978265030519578</title>
<polygon fill="none" stroke="black" points="141,-2156 87,-2156 87,-2120 141,-2120 141,-2156"/>
<text text-anchor="middle" x="114" y="-2134.3" font-family="Helvetica,sans-Serif" font-size="14.00">0</text>
</g>
<!-- &#45;7056337134126347154&#45;&gt;&#45;1121978265030519578 -->
<g id="edge43" class="edge"><title>&#45;7056337134126347154&#45;&gt;&#45;1121978265030519578</title>
<path fill="none" stroke="black" d="M114,-2083.44C114,-2092.25 114,-2101.41 114,-2109.61"/>
<polygon fill="black" stroke="black" points="110.5,-2109.73 114,-2119.73 117.5,-2109.73 110.5,-2109.73"/>
</g>
<!-- &#45;1279201544880898294 -->
<g id="node42" class="node"><title>&#45;1279201544880898294</title>
<ellipse fill="none" stroke="black" cx="114" cy="-2229" rx="36.2938" ry="36.2938"/>
<text text-anchor="middle" x="114" y="-2225.3" font-family="Helvetica,sans-Serif" font-size="14.00">assign</text>
</g>
<!-- &#45;1121978265030519578&#45;&gt;&#45;1279201544880898294 -->
<g id="edge46" class="edge"><title>&#45;1121978265030519578&#45;&gt;&#45;1279201544880898294</title>
<path fill="none" stroke="black" d="M114,-2156.16C114,-2163.73 114,-2173.02 114,-2182.37"/>
<polygon fill="black" stroke="black" points="110.5,-2182.47 114,-2192.47 117.5,-2182.47 110.5,-2182.47"/>
</g>
<!-- &#45;1279201544880898294&#45;&gt;3260336296559551021 -->
<g id="edge45" class="edge"><title>&#45;1279201544880898294&#45;&gt;3260336296559551021</title>
<path fill="none" stroke="black" d="M114,-2265.43C114,-2274.06 114,-2283.16 114,-2291.37"/>
<polygon fill="black" stroke="black" points="110.5,-2291.52 114,-2301.52 117.5,-2291.52 110.5,-2291.52"/>
</g>
<!-- 3638035306444655326 -->
<g id="node43" class="node"><title>3638035306444655326</title>
<ellipse fill="none" stroke="black" cx="114" cy="-2590" rx="25.1964" ry="25.1964"/>
<text text-anchor="middle" x="114" y="-2586.3" font-family="Helvetica,sans-Serif" font-size="14.00">mul</text>
</g>
<!-- 3638035306444655326&#45;&gt;&#45;1431612779325399339 -->
<g id="edge47" class="edge"><title>3638035306444655326&#45;&gt;&#45;1431612779325399339</title>
<path fill="none" stroke="black" d="M111.785,-2615.68C111.042,-2623.96 110.208,-2633.25 109.448,-2641.72"/>
<polygon fill="black" stroke="black" points="105.944,-2641.61 108.536,-2651.88 112.916,-2642.24 105.944,-2641.61"/>
</g>
<!-- &#45;8856684703161764192 -->
<g id="node44" class="node"><title>&#45;8856684703161764192</title>
<polygon fill="none" stroke="black" points="141,-2528 87,-2528 87,-2492 141,-2492 141,-2528"/>
<text text-anchor="middle" x="114" y="-2506.3" font-family="Helvetica,sans-Serif" font-size="14.00">0</text>
</g>
<!-- &#45;8856684703161764192&#45;&gt;3638035306444655326 -->
<g id="edge48" class="edge"><title>&#45;8856684703161764192&#45;&gt;3638035306444655326</title>
<path fill="none" stroke="black" d="M114,-2528.31C114,-2536.07 114,-2545.51 114,-2554.61"/>
<polygon fill="black" stroke="black" points="110.5,-2554.64 114,-2564.64 117.5,-2554.64 110.5,-2554.64"/>
</g>
<!-- &#45;3285986395434142770 -->
<g id="node45" class="node"><title>&#45;3285986395434142770</title>
<polygon fill="none" stroke="black" points="226,-2528 172,-2528 172,-2492 226,-2492 226,-2528"/>
<text text-anchor="middle" x="199" y="-2506.3" font-family="Helvetica,sans-Serif" font-size="14.00">0</text>
</g>
<!-- &#45;3285986395434142770&#45;&gt;3638035306444655326 -->
<g id="edge49" class="edge"><title>&#45;3285986395434142770&#45;&gt;3638035306444655326</title>
<path fill="none" stroke="black" d="M180.136,-2528.31C168.309,-2539.16 152.901,-2553.3 139.933,-2565.2"/>
<polygon fill="black" stroke="black" points="137.23,-2562.93 132.228,-2572.27 141.962,-2568.09 137.23,-2562.93"/>
</g>
<!-- &#45;1899607853284178312&#45;&gt;&#45;8856684703161764192 -->
<g id="edge50" class="edge"><title>&#45;1899607853284178312&#45;&gt;&#45;8856684703161764192</title>
<path fill="none" stroke="black" d="M114,-2455.44C114,-2464.25 114,-2473.41 114,-2481.61"/>
<polygon fill="black" stroke="black" points="110.5,-2481.73 114,-2491.73 117.5,-2481.73 110.5,-2481.73"/>
</g>
<!-- 1218942434740220020&#45;&gt;&#45;3285986395434142770 -->
<g id="edge52" class="edge"><title>1218942434740220020&#45;&gt;&#45;3285986395434142770</title>
<path fill="none" stroke="black" d="M207.144,-2454.9C205.774,-2464 204.344,-2473.5 203.072,-2481.95"/>
<polygon fill="black" stroke="black" points="199.588,-2481.58 201.561,-2491.99 206.51,-2482.62 199.588,-2481.58"/>
</g>
<!-- &#45;1096133876649356635 -->
<g id="node49" class="node"><title>&#45;1096133876649356635</title>
<polygon fill="none" stroke="black" points="103,-3060 49,-3060 49,-3024 103,-3024 103,-3060"/>
<text text-anchor="middle" x="76" y="-3038.3" font-family="Helvetica,sans-Serif" font-size="14.00">0</text>
</g>
<!-- &#45;436003094965818497&#45;&gt;&#45;1096133876649356635 -->
<g id="edge54" class="edge"><title>&#45;436003094965818497&#45;&gt;&#45;1096133876649356635</title>
<path fill="none" stroke="black" d="M76,-2987.44C76,-2996.25 76,-3005.41 76,-3013.61"/>
<polygon fill="black" stroke="black" points="72.5001,-3013.73 76,-3023.73 79.5001,-3013.73 72.5001,-3013.73"/>
</g>
<!-- 7533532801174209128 -->
<g id="node50" class="node"><title>7533532801174209128</title>
<ellipse fill="none" stroke="black" cx="76" cy="-3173" rx="76.8869" ry="76.8869"/>
<text text-anchor="middle" x="76" y="-3169.3" font-family="Helvetica,sans-Serif" font-size="14.00">aggregate&#45;chunk</text>
</g>
<!-- &#45;1096133876649356635&#45;&gt;7533532801174209128 -->
<g id="edge57" class="edge"><title>&#45;1096133876649356635&#45;&gt;7533532801174209128</title>
<path fill="none" stroke="black" d="M76,-3060.13C76,-3067.3 76,-3076.22 76,-3085.86"/>
<polygon fill="black" stroke="black" points="72.5001,-3086.13 76,-3096.13 79.5001,-3086.13 72.5001,-3086.13"/>
</g>
<!-- &#45;9114863358612417524 -->
<g id="node51" class="node"><title>&#45;9114863358612417524</title>
<polygon fill="none" stroke="black" points="103,-3322 49,-3322 49,-3286 103,-3286 103,-3322"/>
<text text-anchor="middle" x="76" y="-3300.3" font-family="Helvetica,sans-Serif" font-size="14.00">0</text>
</g>
<!-- 7533532801174209128&#45;&gt;&#45;9114863358612417524 -->
<g id="edge56" class="edge"><title>7533532801174209128&#45;&gt;&#45;9114863358612417524</title>
<path fill="none" stroke="black" d="M76,-3249.79C76,-3259.03 76,-3267.96 76,-3275.77"/>
<polygon fill="black" stroke="black" points="72.5001,-3275.99 76,-3285.99 79.5001,-3275.99 72.5001,-3275.99"/>
</g>
<!-- &#45;2341341712443274058 -->
<g id="node52" class="node"><title>&#45;2341341712443274058</title>
<ellipse fill="none" stroke="black" cx="76" cy="-3426" rx="67.6881" ry="67.6881"/>
<text text-anchor="middle" x="76" y="-3422.3" font-family="Helvetica,sans-Serif" font-size="14.00">aggregate&#45;agg</text>
</g>
<!-- &#45;9114863358612417524&#45;&gt;&#45;2341341712443274058 -->
<g id="edge59" class="edge"><title>&#45;9114863358612417524&#45;&gt;&#45;2341341712443274058</title>
<path fill="none" stroke="black" d="M76,-3322.19C76,-3329.46 76,-3338.47 76,-3348.11"/>
<polygon fill="black" stroke="black" points="72.5001,-3348.34 76,-3358.34 79.5001,-3348.34 72.5001,-3348.34"/>
</g>
<!-- 2812256007148587592 -->
<g id="node53" class="node"><title>2812256007148587592</title>
<polygon fill="none" stroke="black" points="103,-3566 49,-3566 49,-3530 103,-3530 103,-3566"/>
<text text-anchor="middle" x="76" y="-3544.3" font-family="Helvetica,sans-Serif" font-size="14.00">0</text>
</g>
<!-- &#45;2341341712443274058&#45;&gt;2812256007148587592 -->
<g id="edge58" class="edge"><title>&#45;2341341712443274058&#45;&gt;2812256007148587592</title>
<path fill="none" stroke="black" d="M76,-3493.67C76,-3502.87 76,-3511.85 76,-3519.75"/>
<polygon fill="black" stroke="black" points="72.5001,-3519.76 76,-3529.76 79.5001,-3519.76 72.5001,-3519.76"/>
</g>
<!-- &#45;6040786309436532066 -->
<g id="node54" class="node"><title>&#45;6040786309436532066</title>
<ellipse fill="none" stroke="black" cx="76" cy="-3643" rx="40.8928" ry="40.8928"/>
<text text-anchor="middle" x="76" y="-3639.3" font-family="Helvetica,sans-Serif" font-size="14.00">rename</text>
</g>
<!-- 2812256007148587592&#45;&gt;&#45;6040786309436532066 -->
<g id="edge61" class="edge"><title>2812256007148587592&#45;&gt;&#45;6040786309436532066</title>
<path fill="none" stroke="black" d="M76,-3566.06C76,-3573.45 76,-3582.53 76,-3591.81"/>
<polygon fill="black" stroke="black" points="72.5001,-3591.88 76,-3601.88 79.5001,-3591.88 72.5001,-3591.88"/>
</g>
<!-- 516002740466487408 -->
<g id="node55" class="node"><title>516002740466487408</title>
<polygon fill="none" stroke="black" points="103,-3756 49,-3756 49,-3720 103,-3720 103,-3756"/>
<text text-anchor="middle" x="76" y="-3734.3" font-family="Helvetica,sans-Serif" font-size="14.00">0</text>
</g>
<!-- &#45;6040786309436532066&#45;&gt;516002740466487408 -->
<g id="edge60" class="edge"><title>&#45;6040786309436532066&#45;&gt;516002740466487408</title>
<path fill="none" stroke="black" d="M76,-3683.98C76,-3692.74 76,-3701.82 76,-3709.94"/>
<polygon fill="black" stroke="black" points="72.5001,-3709.94 76,-3719.94 79.5001,-3709.94 72.5001,-3709.94"/>
</g>
<!-- &#45;1654854936766015139 -->
<g id="node56" class="node"><title>&#45;1654854936766015139</title>
<ellipse fill="none" stroke="black" cx="76" cy="-3848" rx="55.7903" ry="55.7903"/>
<text text-anchor="middle" x="76" y="-3844.3" font-family="Helvetica,sans-Serif" font-size="14.00">reset_index</text>
</g>
<!-- 516002740466487408&#45;&gt;&#45;1654854936766015139 -->
<g id="edge63" class="edge"><title>516002740466487408&#45;&gt;&#45;1654854936766015139</title>
<path fill="none" stroke="black" d="M76,-3756.35C76,-3763.53 76,-3772.35 76,-3781.64"/>
<polygon fill="black" stroke="black" points="72.5001,-3781.85 76,-3791.85 79.5001,-3781.85 72.5001,-3781.85"/>
</g>
<!-- 7719327369775253011 -->
<g id="node57" class="node"><title>7719327369775253011</title>
<polygon fill="none" stroke="black" points="103,-3976 49,-3976 49,-3940 103,-3940 103,-3976"/>
<text text-anchor="middle" x="76" y="-3954.3" font-family="Helvetica,sans-Serif" font-size="14.00">0</text>
</g>
<!-- &#45;1654854936766015139&#45;&gt;7719327369775253011 -->
<g id="edge62" class="edge"><title>&#45;1654854936766015139&#45;&gt;7719327369775253011</title>
<path fill="none" stroke="black" d="M76,-3903.95C76,-3912.83 76,-3921.68 76,-3929.54"/>
<polygon fill="black" stroke="black" points="72.5001,-3929.54 76,-3939.54 79.5001,-3929.54 72.5001,-3929.54"/>
</g>
<!-- 7943477896504041442 -->
<g id="node58" class="node"><title>7943477896504041442</title>
<ellipse fill="none" stroke="black" cx="76" cy="-4053" rx="40.0939" ry="40.0939"/>
<text text-anchor="middle" x="76" y="-4049.3" font-family="Helvetica,sans-Serif" font-size="14.00">getitem</text>
</g>
<!-- 7719327369775253011&#45;&gt;7943477896504041442 -->
<g id="edge65" class="edge"><title>7719327369775253011&#45;&gt;7943477896504041442</title>
<path fill="none" stroke="black" d="M76,-3976.06C76,-3983.61 76,-3992.91 76,-4002.39"/>
<polygon fill="black" stroke="black" points="72.5001,-4002.67 76,-4012.67 79.5001,-4002.67 72.5001,-4002.67"/>
</g>
<!-- &#45;1256346398034010451 -->
<g id="node59" class="node"><title>&#45;1256346398034010451</title>
<polygon fill="none" stroke="black" points="103,-4166 49,-4166 49,-4130 103,-4130 103,-4166"/>
<text text-anchor="middle" x="76" y="-4144.3" font-family="Helvetica,sans-Serif" font-size="14.00">0</text>
</g>
<!-- 7943477896504041442&#45;&gt;&#45;1256346398034010451 -->
<g id="edge64" class="edge"><title>7943477896504041442&#45;&gt;&#45;1256346398034010451</title>
<path fill="none" stroke="black" d="M76,-4093.44C76,-4102.25 76,-4111.41 76,-4119.61"/>
<polygon fill="black" stroke="black" points="72.5001,-4119.73 76,-4129.73 79.5001,-4119.73 72.5001,-4119.73"/>
</g>
<!-- &#45;3601875784381266066 -->
<g id="node60" class="node"><title>&#45;3601875784381266066</title>
<ellipse fill="none" stroke="black" cx="76" cy="-4243" rx="40.8928" ry="40.8928"/>
<text text-anchor="middle" x="76" y="-4239.3" font-family="Helvetica,sans-Serif" font-size="14.00">rename</text>
</g>
<!-- &#45;1256346398034010451&#45;&gt;&#45;3601875784381266066 -->
<g id="edge67" class="edge"><title>&#45;1256346398034010451&#45;&gt;&#45;3601875784381266066</title>
<path fill="none" stroke="black" d="M76,-4166.06C76,-4173.45 76,-4182.53 76,-4191.81"/>
<polygon fill="black" stroke="black" points="72.5001,-4191.88 76,-4201.88 79.5001,-4191.88 72.5001,-4191.88"/>
</g>
<!-- 94416673239599678 -->
<g id="node61" class="node"><title>94416673239599678</title>
<polygon fill="none" stroke="black" points="103,-4356 49,-4356 49,-4320 103,-4320 103,-4356"/>
<text text-anchor="middle" x="76" y="-4334.3" font-family="Helvetica,sans-Serif" font-size="14.00">0</text>
</g>
<!-- &#45;3601875784381266066&#45;&gt;94416673239599678 -->
<g id="edge66" class="edge"><title>&#45;3601875784381266066&#45;&gt;94416673239599678</title>
<path fill="none" stroke="black" d="M76,-4283.98C76,-4292.74 76,-4301.82 76,-4309.94"/>
<polygon fill="black" stroke="black" points="72.5001,-4309.94 76,-4319.94 79.5001,-4309.94 72.5001,-4309.94"/>
</g>
</g>
</svg>
