<?xml version="1.0" encoding="UTF-8" standalone="no"?>
<!DOCTYPE svg PUBLIC "-//W3C//DTD SVG 1.1//EN"
 "http://www.w3.org/Graphics/SVG/1.1/DTD/svg11.dtd">
<!-- Generated by graphviz version 2.30.1 (20180420.1509)
 -->
<!-- Title: %3 Pages: 1 -->
<svg width="88pt" height="594pt"
 viewBox="0.00 0.00 88.00 594.00" xmlns="http://www.w3.org/2000/svg" xmlns:xlink="http://www.w3.org/1999/xlink">
<g id="graph0" class="graph" transform="scale(1 1) rotate(0) translate(4 590)">
<title>%3</title>
<polygon fill="white" stroke="white" points="-4,5 -4,-590 85,-590 85,5 -4,5"/>
<!-- &#45;1421774669910764892 -->
<g id="node1" class="node"><title>&#45;1421774669910764892</title>
<polygon fill="none" stroke="black" points="67,-36 13,-36 13,-0 67,-0 67,-36"/>
<text text-anchor="middle" x="40" y="-14.3" font-family="Helvetica,sans-Serif" font-size="14.00">0</text>
</g>
<!-- &#45;5489841462524050887 -->
<g id="node2" class="node"><title>&#45;5489841462524050887</title>
<ellipse fill="none" stroke="black" cx="40" cy="-103" rx="30.5947" ry="30.5947"/>
<text text-anchor="middle" x="40" y="-99.3" font-family="Helvetica,sans-Serif" font-size="14.00">head</text>
</g>
<!-- &#45;1421774669910764892&#45;&gt;&#45;5489841462524050887 -->
<g id="edge2" class="edge"><title>&#45;1421774669910764892&#45;&gt;&#45;5489841462524050887</title>
<path fill="none" stroke="black" d="M40,-36.1977C40,-43.7875 40,-53.0518 40,-62.2053"/>
<polygon fill="black" stroke="black" points="36.5001,-62.3976 40,-72.3976 43.5001,-62.3976 36.5001,-62.3976"/>
</g>
<!-- 2852246876824225177 -->
<g id="node3" class="node"><title>2852246876824225177</title>
<polygon fill="none" stroke="black" points="67,-206 13,-206 13,-170 67,-170 67,-206"/>
<text text-anchor="middle" x="40" y="-184.3" font-family="Helvetica,sans-Serif" font-size="14.00">0</text>
</g>
<!-- &#45;5489841462524050887&#45;&gt;2852246876824225177 -->
<g id="edge1" class="edge"><title>&#45;5489841462524050887&#45;&gt;2852246876824225177</title>
<path fill="none" stroke="black" d="M40,-133.965C40,-142.359 40,-151.438 40,-159.671"/>
<polygon fill="black" stroke="black" points="36.5001,-159.878 40,-169.878 43.5001,-159.878 36.5001,-159.878"/>
</g>
<!-- &#45;3506312043953697315 -->
<g id="node4" class="node"><title>&#45;3506312043953697315</title>
<ellipse fill="none" stroke="black" cx="40" cy="-283" rx="40.0939" ry="40.0939"/>
<text text-anchor="middle" x="40" y="-279.3" font-family="Helvetica,sans-Serif" font-size="14.00">getitem</text>
</g>
<!-- 2852246876824225177&#45;&gt;&#45;3506312043953697315 -->
<g id="edge4" class="edge"><title>2852246876824225177&#45;&gt;&#45;3506312043953697315</title>
<path fill="none" stroke="black" d="M40,-206.058C40,-213.605 40,-222.911 40,-232.39"/>
<polygon fill="black" stroke="black" points="36.5001,-232.669 40,-242.669 43.5001,-232.669 36.5001,-232.669"/>
</g>
<!-- 7379091872689495119 -->
<g id="node5" class="node"><title>7379091872689495119</title>
<polygon fill="none" stroke="black" points="67,-396 13,-396 13,-360 67,-360 67,-396"/>
<text text-anchor="middle" x="40" y="-374.3" font-family="Helvetica,sans-Serif" font-size="14.00">0</text>
</g>
<!-- &#45;3506312043953697315&#45;&gt;7379091872689495119 -->
<g id="edge3" class="edge"><title>&#45;3506312043953697315&#45;&gt;7379091872689495119</title>
<path fill="none" stroke="black" d="M40,-323.44C40,-332.252 40,-341.411 40,-349.61"/>
<polygon fill="black" stroke="black" points="36.5001,-349.725 40,-359.725 43.5001,-349.725 36.5001,-349.725"/>
</g>
<!-- 649357050844903030 -->
<g id="node6" class="node"><title>649357050844903030</title>
<ellipse fill="none" stroke="black" cx="40" cy="-473" rx="40.8928" ry="40.8928"/>
<text text-anchor="middle" x="40" y="-469.3" font-family="Helvetica,sans-Serif" font-size="14.00">rename</text>
</g>
<!-- 7379091872689495119&#45;&gt;649357050844903030 -->
<g id="edge6" class="edge"><title>7379091872689495119&#45;&gt;649357050844903030</title>
<path fill="none" stroke="black" d="M40,-396.058C40,-403.451 40,-412.532 40,-421.81"/>
<polygon fill="black" stroke="black" points="36.5001,-421.885 40,-431.885 43.5001,-421.885 36.5001,-421.885"/>
</g>
<!-- 4306692604275893846 -->
<g id="node7" class="node"><title>4306692604275893846</title>
<polygon fill="none" stroke="black" points="67,-586 13,-586 13,-550 67,-550 67,-586"/>
<text text-anchor="middle" x="40" y="-564.3" font-family="Helvetica,sans-Serif" font-size="14.00">0</text>
</g>
<!-- 649357050844903030&#45;&gt;4306692604275893846 -->
<g id="edge5" class="edge"><title>649357050844903030&#45;&gt;4306692604275893846</title>
<path fill="none" stroke="black" d="M40,-513.98C40,-522.743 40,-531.821 40,-539.937"/>
<polygon fill="black" stroke="black" points="36.5001,-539.942 40,-549.942 43.5001,-539.942 36.5001,-539.942"/>
</g>
</g>
</svg>
