<?xml version="1.0" encoding="UTF-8" standalone="no"?>
<!DOCTYPE svg PUBLIC "-//W3C//DTD SVG 1.1//EN"
 "http://www.w3.org/Graphics/SVG/1.1/DTD/svg11.dtd">
<!-- Generated by graphviz version 2.30.1 (20180420.1509)
 -->
<!-- Title: %3 Pages: 1 -->
<svg width="88pt" height="424pt"
 viewBox="0.00 0.00 88.00 424.00" xmlns="http://www.w3.org/2000/svg" xmlns:xlink="http://www.w3.org/1999/xlink">
<g id="graph0" class="graph" transform="scale(1 1) rotate(0) translate(4 420)">
<title>%3</title>
<polygon fill="white" stroke="white" points="-4,5 -4,-420 85,-420 85,5 -4,5"/>
<!-- &#45;6424546615168598784 -->
<g id="node1" class="node"><title>&#45;6424546615168598784</title>
<polygon fill="none" stroke="black" points="67,-36 13,-36 13,-0 67,-0 67,-36"/>
<text text-anchor="middle" x="40" y="-14.3" font-family="Helvetica,sans-Serif" font-size="14.00">0</text>
</g>
<!-- &#45;5696092113994993008 -->
<g id="node2" class="node"><title>&#45;5696092113994993008</title>
<ellipse fill="none" stroke="black" cx="40" cy="-113" rx="40.0939" ry="40.0939"/>
<text text-anchor="middle" x="40" y="-109.3" font-family="Helvetica,sans-Serif" font-size="14.00">getitem</text>
</g>
<!-- &#45;6424546615168598784&#45;&gt;&#45;5696092113994993008 -->
<g id="edge2" class="edge"><title>&#45;6424546615168598784&#45;&gt;&#45;5696092113994993008</title>
<path fill="none" stroke="black" d="M40,-36.0576C40,-43.6054 40,-52.9114 40,-62.3904"/>
<polygon fill="black" stroke="black" points="36.5001,-62.6691 40,-72.6692 43.5001,-62.6692 36.5001,-62.6691"/>
</g>
<!-- 5286367579042485490 -->
<g id="node3" class="node"><title>5286367579042485490</title>
<polygon fill="none" stroke="black" points="67,-226 13,-226 13,-190 67,-190 67,-226"/>
<text text-anchor="middle" x="40" y="-204.3" font-family="Helvetica,sans-Serif" font-size="14.00">0</text>
</g>
<!-- &#45;5696092113994993008&#45;&gt;5286367579042485490 -->
<g id="edge1" class="edge"><title>&#45;5696092113994993008&#45;&gt;5286367579042485490</title>
<path fill="none" stroke="black" d="M40,-153.44C40,-162.252 40,-171.411 40,-179.61"/>
<polygon fill="black" stroke="black" points="36.5001,-179.725 40,-189.725 43.5001,-179.725 36.5001,-179.725"/>
</g>
<!-- 7645586521997212769 -->
<g id="node4" class="node"><title>7645586521997212769</title>
<ellipse fill="none" stroke="black" cx="40" cy="-303" rx="40.8928" ry="40.8928"/>
<text text-anchor="middle" x="40" y="-299.3" font-family="Helvetica,sans-Serif" font-size="14.00">rename</text>
</g>
<!-- 5286367579042485490&#45;&gt;7645586521997212769 -->
<g id="edge4" class="edge"><title>5286367579042485490&#45;&gt;7645586521997212769</title>
<path fill="none" stroke="black" d="M40,-226.058C40,-233.451 40,-242.532 40,-251.81"/>
<polygon fill="black" stroke="black" points="36.5001,-251.885 40,-261.885 43.5001,-251.885 36.5001,-251.885"/>
</g>
<!-- &#45;6129066272183377661 -->
<g id="node5" class="node"><title>&#45;6129066272183377661</title>
<polygon fill="none" stroke="black" points="67,-416 13,-416 13,-380 67,-380 67,-416"/>
<text text-anchor="middle" x="40" y="-394.3" font-family="Helvetica,sans-Serif" font-size="14.00">0</text>
</g>
<!-- 7645586521997212769&#45;&gt;&#45;6129066272183377661 -->
<g id="edge3" class="edge"><title>7645586521997212769&#45;&gt;&#45;6129066272183377661</title>
<path fill="none" stroke="black" d="M40,-343.98C40,-352.743 40,-361.821 40,-369.937"/>
<polygon fill="black" stroke="black" points="36.5001,-369.942 40,-379.942 43.5001,-369.942 36.5001,-369.942"/>
</g>
</g>
</svg>
